# xmcd
#
# Track frame offsets:
#	150
#	21830
#	38513
#	65594
#	92845
#	108809
#	123462
#	142796
#	156771
#	178024
#	198330
#	216189
#
# Disc length: 3312 seconds
#
# Revision: 1
# Processed by: cddbd v1.5.1PL2 Copyright (c) Steve Scherf et al.
# Submitted via: audiograbber 1.80
#
DISCID=9d0cee0c
DTITLE=Lightnin' Malcolm - Juke Joint Dance Party
DYEAR=1900
DGENRE=
TTITLE0=Keep On Flying
TTITLE1=Stay Here In Your Arms
TTITLE2=Love Me Slow
TTITLE3=Play It Long Enough
TTITLE4=Breaktime
TTITLE5=Look At My Eyes
TTITLE6=I Looked Up The Road
TTITLE7=So Long
TTITLE8=So Many Women
TTITLE9=Out On The Hillside
TTITLE10=Please Take Me Home
TTITLE11=Stay All Night
EXTD=
EXTT0=
EXTT1=
EXTT2=
EXTT3=
EXTT4=
EXTT5=
EXTT6=
EXTT7=
EXTT8=
EXTT9=
EXTT10=
EXTT11=
PLAYORDER=
